HIERARCHY
ROOT Hips
{
	OFFSET 0.00000 0.00000 0.00000
	CHANNELS 6 Xposition Yposition Zposition Yrotation Zrotation Xrotation 
	JOINT Lumbar
	{
		OFFSET 0 0 0
		CHANNELS 3 Zrotation Xrotation Yrotation
		JOINT Neck
		{
			OFFSET 0.00 0.2701 0.00
			CHANNELS 3 Zrotation Xrotation Yrotation
			End Site
			{
				OFFSET 0.00 0.1379 0.00
			}
		}
		JOINT RightShoulder
		{
			OFFSET 0.0119 0.2289 0.1181
			CHANNELS 3 Zrotation Xrotation Yrotation
			JOINT RightElbow
			{
				OFFSET 0.00 -0.1475 0.00
				CHANNELS 2 Zrotation Yrotation
				JOINT RightWrist
				{
					OFFSET 0.00 -0.1605 0.00
					CHANNELS 2 Zrotation Xrotation
					End Site
					{
						OFFSET 0.0040 -0.1068 0.0006
					}
				}
			}
		}
		JOINT LeftShoulder
		{
			OFFSET 0.0119 0.2289 -0.1181
			CHANNELS 3 Zrotation Xrotation Yrotation
			JOINT LeftElbow
			{
				OFFSET 0.00 -0.1475 0.00
				CHANNELS 2 Zrotation Yrotation
				JOINT LeftWrist
				{
					OFFSET 0.00 -0.1605 0.00
					CHANNELS 2 Zrotation Xrotation
					End Site
					{
						OFFSET 0.0040 -0.1068 -0.0006
					}
				}
			}
		}
	}
	JOINT RightHip
	{
		OFFSET 0.0316 -0.0424 0.0458
		CHANNELS 3 Zrotation Xrotation Yrotation
		JOINT RightKnee
		{
			OFFSET 0.00 -0.2438 0.00
			CHANNELS 1 Zrotation
			JOINT RightAnkle
			{
				OFFSET 0.00 -0.2449 0.00
				CHANNELS 3 Zrotation Xrotation Yrotation
				End Site
				{
					OFFSET 0.1237 -0.0542 0.0051
				}
			}
		}
	}
	JOINT LeftHip
	{
		OFFSET 0.0316 -0.0424 -0.0458
		CHANNELS 3 Zrotation Xrotation Yrotation
		JOINT LeftKnee
		{
			OFFSET 0.00 -0.2438 0.00
			CHANNELS 1 Zrotation
			JOINT LeftAnkle
			{
				OFFSET 0.00 -0.2449 0.00
				CHANNELS 3 Zrotation Xrotation Yrotation
				End Site
				{
					OFFSET 0.1237 -0.0542 -0.0051
				}
			}
		}
	}
}
MOTION
Frames: 30
Frame Time: 0.02
0.00466 -0.00292 0.00925 24.44621 -34.44308 -3.373 54.11536 0.20276 2.33855 -9.71038 -0.57793 -0.83079 -35.94756 -7.29735 4.67813 133.09963 114.5457 -40.99076 -7.37362 -30.24373 10.21818 -3.19341 97.68729 -80.32534 -12.80985 3.35369 46.23557 -8.55617 -3.56994 -26.85949 -7.00305 -3.91132 -2.70229 51.5449 3.53733 -4.04428 -25.00372 -7.88414 4.28487 2.97429
0.00287 -0.00344 0.00626 24.21442 -34.09301 -3.29595 53.68393 0.20334 2.25109 -10.04039 -0.54153 -0.83079 -35.45414 -7.20788 4.78483 132.86888 112.2846 -39.84408 -7.14217 -30.14112 10.36349 -3.47284 97.71719 -79.07055 -12.89833 2.9487 46.83029 -9.10447 -3.39686 -28.3507 -7.02783 -3.81666 -2.65084 51.14866 3.22014 -3.69192 -25.12117 -7.82671 4.30861 2.98267
0.00091 -0.00407 0.00327 24.04793 -33.69991 -3.20013 53.1615 0.19101 2.15748 -10.32634 -0.53488 -0.83079 -35.17646 -7.14764 4.89033 132.68157 109.80031 -38.46604 -6.90525 -29.88528 10.55339 -3.84364 97.69258 -77.54558 -12.97738 2.46598 47.5448 -9.73271 -3.36184 -30.1198 -7.05042 -3.6922 -2.58343 50.72052 2.86937 -3.38624 -25.25397 -7.76839 4.33587 2.99152
-0.00098 -0.00465 0.00032 23.84823 -33.31858 -3.11602 52.67053 0.18334 2.05671 -10.6264 -0.51346 -0.83079 -34.79648 -7.08497 5.01125 132.45846 107.37696 -37.21675 -6.66484 -29.70375 10.73884 -4.18306 97.70295 -76.10719 -13.08739 2.01918 48.22074 -10.31482 -3.24673 -31.78929 -7.07721 -3.58096 -2.52327 50.30345 2.54021 -3.05777 -25.37976 -7.711 4.36121 3.00019
-0.00285 -0.00524 -0.00279 23.66201 -32.96717 -3.01718 52.21839 0.18026 1.99853 -10.94959 -0.49538 -0.83079 -34.40995 -6.98201 5.07953 132.29769 105.11575 -35.86533 -6.452 -29.49802 10.85919 -4.48409 97.67139 -74.79365 -13.08875 1.56565 48.835 -10.94013 -3.19156 -33.36231 -7.09193 -3.47119 -2.46318 49.8986 2.18404 -2.72814 -25.50662 -7.6506 4.38736 3.00844
-0.00478 -0.00583 -0.00556 23.46422 -32.54647 -2.94606 51.66692 0.16513 1.85044 -11.21509 -0.47836 -0.83079 -34.10101 -6.96796 5.24974 132.01975 102.472 -34.66154 -6.17871 -29.30753 11.12642 -4.88538 97.71279 -73.18534 -13.30194 1.11099 49.60149 -11.49135 -3.05294 -35.18527 -7.12976 -3.35186 -2.39944 49.46309 1.87797 -2.41342 -25.63386 -7.59653 4.41247 3.01753
-0.00689 -0.00645 -0.00747 23.21287 -31.9192 -2.94351 50.83904 0.11512 1.45016 -11.32891 -0.45454 -0.83079 -33.91211 -7.19037 5.74521 131.40404 98.77598 -34.05921 -5.75134 -29.20295 11.77111 -5.53666 97.98147 -70.60126 -14.23321 0.65061 50.79108 -11.84777 -2.60639 -37.76041 -7.24394 -3.20574 -2.32588 48.93242 1.69649 -2.15014 -25.76653 -7.56079 4.43892 3.03204
-0.00903 -0.00707 -0.00903 22.94884 -31.2289 -2.97162 49.91944 0.05421 0.9608 -11.38684 -0.43151 -0.83079 -33.80389 -7.50091 6.33424 130.67016 94.71878 -33.59025 -5.26196 -29.1187 12.56412 -6.28523 98.32335 -67.77521 -15.35363 0.19574 52.12289 -12.1214 -2.08023 -40.55048 -7.37941 -3.05243 -2.24988 48.37573 1.57 -1.89895 -25.89743 -7.53154 4.46355 3.04694
-0.0111 -0.00766 -0.01072 22.69444 -30.58399 -2.9943 49.05734 0.00159 0.51518 -11.47285 -0.40989 -0.83079 -33.68969 -7.7714 6.85115 129.99373 90.85278 -32.97205 -4.79198 -29.02151 13.30097 -6.99227 98.62325 -65.20797 -16.30432 -0.24665 53.36894 -12.41396 -1.62099 -43.15916 -7.49686 -2.90721 -2.17726 47.84271 1.43303 -1.62762 -26.02385 -7.49889 4.48568 3.05951
-0.01339 -0.00836 -0.01252 22.4259 -29.86548 -2.98152 48.12341 -0.06507 0.05424 -11.54663 -0.38161 -0.83079 -33.45575 -8.04256 7.49342 129.30362 86.83942 -32.71851 -4.35488 -28.93384 13.99492 -7.69372 98.95712 -61.99512 -17.61283 -0.75342 54.71063 -12.78872 -1.0381 -46.14013 -7.64839 -2.74022 -2.09427 47.25753 1.23542 -1.4139 -26.17339 -7.46771 4.52142 3.08081
-0.01523 -0.00882 -0.01402 22.18304 -29.2876 -3.04874 47.32085 -0.10551 -0.39411 -11.6324 -0.36727 -0.83079 -33.4843 -8.33341 7.89639 128.61251 83.08182 -31.74163 -3.83968 -28.83404 14.80913 -8.42561 99.2395 -60.08269 -18.2153 -1.1258 55.88252 -12.97095 -0.69021 -48.3817 -7.73538 -2.61773 -2.03281 46.77653 1.17538 -1.08961 -26.2738 -7.43552 4.52902 3.08447
-0.01584 -0.00862 -0.01477 22.01328 -29.09871 -3.34111 46.88393 -0.06556 -0.80063 -11.77207 -0.38891 -0.83079 -34.24648 -8.65095 7.61996 127.95629 79.84668 -28.72479 -3.07999 -28.68965 15.94997 -9.24318 99.35166 -61.74332 -16.87265 -1.11113 56.57375 -12.64679 -1.0267 -48.62624 -7.62712 -2.61571 -2.02862 46.57824 1.50131 -0.39441 -26.24201 -7.39467 4.45324 3.0353
-0.01597 -0.00817 -0.01521 21.86967 -29.05633 -3.71064 46.58652 0.00027 -1.18831 -11.92471 -0.42477 -0.83079 -35.26356 -8.98562 7.09953 127.3022 76.93166 -24.97956 -2.25153 -28.53443 17.20001 -10.08246 99.41132 -64.73847 -14.80435 -0.96475 57.08418 -12.13067 -1.59884 -48.10137 -7.45528 -2.65943 -2.04664 46.48765 1.96052 0.40225 -26.16029 -7.3533 4.35023 2.96907
-0.01628 -0.00782 -0.01579 21.71434 -28.95699 -4.03749 46.23848 0.05081 -1.57529 -12.06688 -0.45565 -0.83079 -36.14437 -9.3171 6.68687 126.64005 74.0518 -21.57413 -1.48415 -28.38884 18.38055 -10.89504 99.50234 -67.17241 -13.03402 -0.88894 57.66181 -11.69841 -2.05185 -47.86138 -7.32045 -2.68538 -2.05657 46.35575 2.34576 1.10998 -26.09926 -7.3151 4.26378 2.91338
-0.01678 -0.00751 -0.01639 21.55783 -28.81551 -4.39837 45.83316 0.11574 -2.0057 -12.22605 -0.48069 -0.83079 -37.11489 -9.63485 6.28703 126.00008 70.40346 -18.1316 -0.59097 -28.22347 19.65318 -11.78347 99.56554 -69.39969 -11.40119 -0.7656 58.30806 -11.27646 -2.5527 -47.89557 -7.15256 -2.69924 -2.05851 46.192 2.78854 1.99284 -26.0463 -7.26511 4.15994 2.84618
-0.01676 -0.00707 -0.01686 21.41025 -28.79653 -4.70525 45.58161 0.15712 -2.33848 -12.35402 -0.52078 -0.83079 -37.95735 -9.98091 5.80586 125.32055 68.42783 -14.59734 0.05859 -28.09713 20.75426 -12.51613 99.6716 -72.38615 -9.31141 -0.71276 58.76605 -10.78994 -3.01123 -47.18191 -7.03757 -2.7481 -2.08173 46.11887 3.14356 2.5417 -25.96513 -7.23901 4.08544 2.7986
-0.01549 -0.00636 -0.01704 21.28005 -29.08779 -4.85307 45.7202 0.12634 -2.41903 -12.38953 -0.60285 -0.83079 -38.38837 -10.42868 5.12003 124.49166 71.06521 -10.94203 -0.00765 -28.0759 21.38542 -12.8261 99.92291 -77.05392 -6.10479 -0.86079 58.75163 -10.15967 -3.29173 -44.51489 -7.08898 -2.89282 -2.1643 46.28355 3.21384 2.08736 -25.81431 -7.28304 4.10255 2.81194
-0.01371 -0.00554 -0.01709 21.15812 -29.49599 -4.94216 46.0092 0.07137 -2.39916 -12.39401 -0.69877 -0.83079 -38.68009 -10.89926 4.3674 123.63034 75.35914 -7.22972 -0.31757 -28.09532 21.83334 -12.97524 100.21614 -82.44515 -2.47226 -1.08735 58.55242 -9.47361 -3.52183 -41.13572 -7.19476 -3.06951 -2.26654 46.53304 3.19289 1.30383 -25.63757 -7.35039 4.14941 2.84512
-0.01212 -0.00478 -0.01719 21.03312 -29.84599 -5.052 46.23008 0.02785 -2.41642 -12.41507 -0.78585 -0.83079 -39.03262 -11.34008 3.6714 122.81112 78.85424 -3.5702 -0.4981 -28.09943 22.34488 -13.18966 100.48067 -87.58009 0.9497 -1.29734 58.43528 -8.82188 -3.77864 -38.13074 -7.27246 -3.22456 -2.35571 46.73496 3.21965 0.70795 -25.47532 -7.40435 4.1801 2.86751
-0.01068 -0.00398 -0.01734 20.90633 -30.22296 -5.18919 46.45499 -0.01745 -2.46894 -12.42623 -0.88442 -0.83079 -39.40608 -11.86125 2.85741 121.87856 82.57137 0.23729 -0.75193 -28.08943 22.94484 -13.43962 100.78432 -92.50583 4.48429 -1.42954 58.32093 -8.12617 -4.03056 -34.88262 -7.3624 -3.4104 -2.46263 46.97957 3.22411 -0.04468 -25.29988 -7.46996 4.22104 2.89681
-0.00882 -0.00325 -0.01734 20.78465 -30.56891 -5.25501 46.70519 -0.06421 -2.42445 -12.4503 -0.96188 -0.83079 -39.69773 -12.22298 2.27477 121.17162 86.19414 3.72918 -0.91562 -28.11908 23.31375 -13.57487 101.01688 -97.95847 7.85645 -1.73471 58.15805 -7.51048 -4.27389 -31.98561 -7.44034 -3.54016 -2.53756 47.15294 3.25237 -0.55075 -25.14639 -7.51703 4.24802 2.91665
-0.006 -0.00273 -0.01701 20.67697 -30.80613 -5.13316 46.98978 -0.11681 -2.13672 -12.51918 -0.97988 -0.83079 -39.81121 -12.11381 2.36236 121.1187 89.33683 6.43134 -0.73801 -28.24473 23.10489 -13.45056 101.04561 -105.23772 10.84383 -2.58162 57.91692 -7.13763 -4.53701 -30.20319 -7.47398 -3.49773 -2.51409 47.1177 3.3615 -0.29367 -25.06057 -7.50577 4.22985 2.90554
-0.00277 -0.00229 -0.01654 20.57374 -31.00627 -4.94221 47.29365 -0.1687 -1.75536 -12.60173 -0.97567 -0.83079 -39.84303 -11.84718 2.6829 121.28905 92.29479 8.7933 -0.46714 -28.40974 22.66628 -13.21261 101.00147 -112.92161 13.62089 -3.58625 57.63217 -6.84656 -4.78627 -28.80809 -7.49359 -3.39924 -2.45859 47.00574 3.49842 0.22105 -24.99807 -7.4754 4.19674 2.88435
0.00029 -0.00181 -0.01612 20.467 -31.21914 -4.78558 47.58719 -0.21596 -1.41633 -12.67704 -0.98014 -0.83079 -39.90239 -11.66994 2.8889 121.34282 95.20925 11.2434 -0.26158 -28.55889 22.32236 -13.01523 100.98872 -120.04294 16.37684 -4.4631 57.36147 -6.51375 -5.0202 -27.25855 -7.51851 -3.33252 -2.42113 46.92244 3.62659 0.61739 -24.92436 -7.45462 4.17003 2.86774
0.00329 -0.00135 -0.01576 20.36652 -31.45389 -4.61402 47.89291 -0.285 -1.07281 -12.75586 -0.99114 -0.83079 -39.9987 -11.42144 3.13147 121.46173 98.70475 13.97278 0.02986 -28.70026 22.01365 -12.86023 100.98319 -128.7542 19.6291 -5.57433 57.10892 -6.19863 -5.34365 -25.59216 -7.54973 -3.24066 -2.36978 46.86799 3.73515 1.01185 -24.85133 -7.4305 4.14552 2.85158
0.00652 -0.00087 -0.01523 20.25435 -31.63233 -4.45869 48.17558 -0.30816 -0.72009 -12.83069 -0.98299 -0.83079 -39.99889 -11.27966 3.35105 121.4953 100.94342 16.04358 0.17084 -28.86748 21.57882 -12.59052 100.94668 -134.28408 21.8067 -6.24027 56.8102 -5.86625 -5.47822 -24.27099 -7.56385 -3.18709 -2.33933 46.73462 3.89249 1.47055 -24.78396 -7.40894 4.11306 2.83213
0.0103 -0.00033 -0.01428 20.10547 -31.66689 -4.35818 48.39102 -0.20508 -0.34492 -12.89416 -0.92843 -0.83079 -39.76756 -11.50582 3.47788 121.26638 99.58263 16.33525 -0.15234 -29.08822 20.85898 -12.04749 100.82554 -130.54947 20.93941 -5.58288 56.3995 -5.4725 -5.09462 -23.80939 -7.53328 -3.25526 -2.37578 46.39753 4.17657 2.08912 -24.71724 -7.39527 4.05747 2.80338
0.01432 0.00023 -0.01314 19.94545 -31.64497 -4.27778 48.58144 -0.05585 0.03216 -12.9527 -0.85531 -0.83079 -39.4408 -11.83853 3.56935 120.93967 96.98566 15.98306 -0.62433 -29.33431 20.02082 -11.39213 100.67839 -123.66811 19.02041 -4.48218 55.94393 -5.05811 -4.52322 -23.68547 -7.48581 -3.36313 -2.43392 45.98436 4.50932 2.75649 -24.65769 -7.38546 3.99514 2.77206
0.01824 0.00079 -0.01206 19.79241 -31.64665 -4.19325 48.782 0.07274 0.39461 -13.01175 -0.78969 -0.83079 -39.1487 -12.09924 3.6584 120.63858 95.06277 15.95476 -1.00966 -29.5748 19.23175 -10.7771 100.55445 -118.47112 17.66428 -3.61977 55.50664 -4.64878 -4.03603 -23.40977 -7.44647 -3.45134 -2.48126 45.6082 4.82118 3.37345 -24.60053 -7.37628 3.93891 2.74359
0.02213 0.00134 -0.0111 19.63058 -31.6559 -4.08593 48.98922 0.2006 0.81798 -13.07876 -0.72643 -0.83079 -38.88864 -12.45283 3.83102 120.42128 92.668 15.7851 -1.47123 -29.79432 18.44985 -10.19788 100.3812 -112.20837 15.93968 -2.60601 55.07645 -4.25873 -3.54666 -23.13944 -7.40504 -3.54512 -2.53183 45.21798 5.12931 4.11882 -24.5186 -7.35633 3.8694 2.7077
